<?xml version="1.0" encoding="utf-8"?>
<!DOCTYPE svg PUBLIC "-//W3C//DTD SVG 1.0//EN" "http://www.w3.org/TR/2001/REC-SVG-20010904/DTD/svg10.dtd">
<svg version="1.0" xmlns="http://www.w3.org/2000/svg" width="256px" height="256px" viewBox="0 0 256 256" preserveAspectRatio="xMidYMid meet">
 <g fill="#ffffff">
  <path d="M0 128 l0 -128 128 0 128 0 0 38.50 0 38.50 -1.10 0 c-0.60 0 -1.45 -0.30 -1.85 -0.70 -0.80 -0.70 -4.15 -1.80 -13.30 -4.30 -2.75 -0.75 -16.60 -4.80 -30.75 -9 -66.85 -19.75 -79.80 -23.50 -81 -23.50 -0.90 0 -10.40 2.75 -57 16.50 -50 14.75 -61.55 18.15 -64.60 19.05 -3.55 1.05 -5 2.40 -3.95 3.65 0.65 0.80 0.70 0.80 31.55 9.85 13.35 3.90 24.45 7.25 24.65 7.45 0.20 0.20 0.50 9.30 0.65 20.20 0.15 10.90 0.45 20.40 0.70 21.10 0.30 0.70 0.50 2.05 0.50 3 0 1.55 -0.10 1.70 -1.55 1.70 -1.70 0 -24.30 -6.60 -26.60 -7.80 -2.35 -1.15 -4.25 -0.85 -6.95 1.15 -4.85 3.50 -8.50 9.55 -10.40 16.95 -1.25 4.90 -1.25 8.25 0 12.35 1.10 3.55 3.35 6.10 5.90 6.60 1.95 0.40 19.15 5.60 52.30 15.80 8.70 2.70 11.85 3.45 13.10 3.20 0.95 -0.15 1.70 -0.50 1.70 -0.75 0 -0.30 0.80 -0.50 1.75 -0.50 1.60 0 1.75 -0.10 1.75 -1.50 0 -1.40 0.15 -1.50 1.75 -1.50 1.65 0 1.75 0.10 1.75 1.75 0 1.65 -0.10 1.75 -1.75 1.75 -1.60 0 -1.75 0.15 -1.75 1.45 0 1.40 0.20 1.50 5.75 3.50 3.15 1.10 7.10 2.40 8.85 2.80 4.30 1.15 35.20 10.55 48.40 14.75 16.65 5.30 15.50 5.05 17.90 4 4.30 -1.95 8.95 -8.20 11.50 -15.45 1.10 -3.10 1.30 -4.70 1.35 -8.80 0 -4.55 -0.15 -5.25 -1.50 -8 -1.75 -3.55 -3.20 -4.40 -11 -6.75 -2.75 -0.80 -15.80 -4.75 -29 -8.75 -13.20 -4 -24.30 -7.25 -24.60 -7.25 -0.40 0 -0.65 -0.75 -0.65 -2.05 l0 -2.10 4.90 0.35 c8.90 0.65 25.45 -0.95 37.10 -3.55 14.05 -3.10 31.40 -10.15 34.25 -13.85 1.95 -2.55 2.25 -5.85 2.25 -25.55 l0 -18.05 12.40 -3.65 c6.80 -2.05 13.25 -4 14.35 -4.35 2 -0.70 9.50 -0.95 10.95 -0.40 0.70 0.25 0.80 2.35 0.80 18 l0 17.65 -1.20 0.65 c-5.15 2.80 -8 8.65 -6.05 12.45 1.50 2.90 3.80 5.45 5.80 6.50 1.70 0.85 1.95 1.20 1.95 2.65 0 1.35 -0.35 1.95 -1.75 3 -3.70 2.80 -6.05 10.65 -6.60 21.75 -0.35 7.55 0.15 9.05 3.50 10.60 2.90 1.30 11.30 1.35 13.80 0.05 3.25 -1.60 3.80 -3 3.65 -8.75 -0.15 -5.80 -1.20 -13.15 -2.40 -16.70 -1.05 -3.10 -3.35 -6.35 -5.20 -7.50 -1.20 -0.70 -1.50 -1.20 -1.50 -2.50 0 -1.40 0.25 -1.75 1.85 -2.40 3.60 -1.50 7.15 -6.10 7.15 -9.20 0 -3.75 -2.65 -7.60 -6.75 -9.85 -0.95 -0.55 -1 -1.15 -1.15 -20.75 l-0.10 -20.25 5.10 -1.40 c2.85 -0.75 5.90 -1.85 6.80 -2.35 0.90 -0.50 2.10 -0.95 2.65 -0.95 0.95 0 0.95 0.85 0.95 52.75 0 47.85 -0.05 52.75 -0.80 53.15 -0.75 0.40 -0.75 0.60 0 2 0.70 1.40 0.80 5.35 0.80 35.60 l0 34 -128 0 -128 0 0 -128z"/>
  <path d="M106.50 184.75 c0 -1.65 0.10 -1.75 1.75 -1.75 1.65 0 1.75 0.10 1.75 1.75 0 1.65 -0.10 1.75 -1.75 1.75 -1.65 0 -1.75 -0.10 -1.75 -1.75z"/>
  <path d="M97.50 177.75 c0 -1.65 0.10 -1.75 1.75 -1.75 1.65 0 1.75 0.10 1.75 1.75 0 1.65 -0.10 1.75 -1.75 1.75 -1.65 0 -1.75 -0.10 -1.75 -1.75z"/>
  <path d="M99 172.75 c0 -1.65 0.10 -1.75 1.75 -1.75 1.65 0 1.75 0.10 1.75 1.75 0 1.65 -0.10 1.75 -1.75 1.75 -1.65 0 -1.75 -0.10 -1.75 -1.75z"/>
  <path d="M110.50 171.25 c0 -1.65 0.10 -1.75 1.75 -1.75 1.65 0 1.75 0.10 1.75 1.75 0 1.65 -0.10 1.75 -1.75 1.75 -1.65 0 -1.75 -0.10 -1.75 -1.75z"/>
  <path d="M110.50 166.25 c0 -1.65 0.10 -1.75 1.75 -1.75 1.65 0 1.75 0.10 1.75 1.75 0 1.65 -0.10 1.75 -1.75 1.75 -1.65 0 -1.75 -0.10 -1.75 -1.75z"/>
  <path d="M100 165.25 c0 -2.25 0 -2.25 1.75 -2.25 1.75 0 1.75 0 1.75 2.25 0 2.25 0 2.25 -1.75 2.25 -1.75 0 -1.75 0 -1.75 -2.25z"/>
  <path d="M109 159.75 c0 -1.65 0.10 -1.75 1.75 -1.75 1.65 0 1.75 0.10 1.75 1.75 0 1.65 -0.10 1.75 -1.75 1.75 -1.65 0 -1.75 -0.10 -1.75 -1.75z"/>
  <path d="M97.50 154.75 c0 -1.65 0.10 -1.75 1.75 -1.75 1.65 0 1.75 0.10 1.75 1.75 0 1.65 -0.10 1.75 -1.75 1.75 -1.65 0 -1.75 -0.10 -1.75 -1.75z"/>
 </g>
 <g fill="#fffbfe">
  <path d="M182 206.25 c0 -1.55 0.15 -1.75 1.30 -1.75 0.70 0 1.20 0.15 1.10 0.40 -1.75 3.65 -2.40 4 -2.40 1.35z"/>
  <path d="M94 195.40 c0 -0.20 -0.35 -0.40 -0.75 -0.40 -0.40 0 -0.75 -0.20 -0.75 -0.50 0 -0.25 0.80 -0.50 1.75 -0.50 1.40 0 1.75 0.20 1.75 0.95 0 0.70 -0.30 0.95 -1 0.90 -0.55 -0.05 -1 -0.25 -1 -0.45z"/>
  <path d="M255 189.50 c0 -0.25 -0.35 -0.50 -0.80 -0.50 -0.40 0 -0.60 -0.20 -0.45 -0.50 0.15 -0.25 0.10 -0.50 -0.15 -0.50 -0.20 0 -0.45 -1.10 -0.55 -2.45 -0.05 -1.85 0.10 -2.50 0.70 -2.75 0.45 -0.15 0.65 -0.50 0.50 -0.80 -0.15 -0.25 0.05 -0.50 0.50 -0.50 0.45 0 0.65 -0.20 0.50 -0.50 -0.15 -0.25 -0.05 -0.50 0.20 -0.50 0.35 0 0.55 1.75 0.55 4.75 0 2.85 -0.20 4.75 -0.50 4.75 -0.25 0 -0.50 -0.20 -0.50 -0.50z"/>
  <path d="M248.50 174.50 c0 -3.90 0.15 -5 0.70 -5 0.90 0 1.30 1.55 1.30 5 0 3.45 -0.40 5 -1.30 5 -0.55 0 -0.70 -1.10 -0.70 -5z"/>
  <path d="M167.90 175.65 c-0.50 -0.10 -0.90 -0.65 -0.90 -1.20 0 -0.80 0.25 -0.90 1.55 -0.70 1.95 0.35 3.45 1.10 3.45 1.75 0 0.50 -2.50 0.60 -4.10 0.15z"/>
  <path d="M162 173 c0 -1 0.75 -1.10 2.65 -0.25 1.40 0.60 0.95 1.25 -0.90 1.25 -1.40 0 -1.75 -0.20 -1.75 -1z"/>
  <path d="M121 161 c0 -0.25 -0.80 -0.50 -1.75 -0.50 -1.65 0 -1.75 -0.10 -1.75 -1.75 0 -1.70 0.05 -1.75 2 -1.75 1.10 0 2 0.25 2 0.50 0 0.30 0.70 0.50 1.50 0.50 0.85 0 1.50 0.25 1.50 0.55 0 0.35 -0.80 0.40 -2.25 0.15 -1.50 -0.20 -2.25 -0.15 -2.25 0.25 0 0.45 1.65 0.80 2.15 0.45 0.30 -0.20 2.35 1.20 2.35 1.60 0 0.30 -0.80 0.50 -1.75 0.50 -0.95 0 -1.75 -0.20 -1.75 -0.50z"/>
  <path d="M12.35 158.50 c-0.35 -1.40 0.15 -3 0.95 -3 0.50 0 0.70 0.65 0.70 2 0 2.15 -1.15 2.85 -1.65 1z"/>
  <path d="M58.70 139.65 c-0.20 -0.50 -0.40 -1.05 -0.40 -1.25 -0.05 -0.15 -0.20 -0.45 -0.35 -0.65 -0.55 -0.50 0.10 -2.25 0.80 -2.25 0.70 0 1.25 1.55 1.25 3.65 0 1.50 -0.70 1.80 -1.30 0.50z"/>
  <path d="M57.95 134.40 c0 -0.35 -0.10 -1.10 -0.25 -1.65 -0.30 -1.60 0.30 -3.75 1.10 -3.75 0.50 0 0.70 0.75 0.70 3 0 2.35 -0.15 3 -0.75 3 -0.40 0 -0.75 -0.30 -0.80 -0.60z"/>
  <path d="M30.40 133.65 c-1.20 -0.30 -1.15 -1.45 0.05 -1.80 1.05 -0.25 4.05 1 4.05 1.70 0 0.45 -2.55 0.50 -4.10 0.10z"/>
  <path d="M208.50 62 c0 -0.80 0.25 -0.95 1.25 -0.80 2.75 0.50 3.10 1.80 0.50 1.80 -1.40 0 -1.75 -0.20 -1.75 -1z"/>
  <path d="M89.50 49.05 c0 -0.50 1.30 -1.15 2.65 -1.30 0.55 -0.05 0.85 0.25 0.85 0.85 0 0.70 -0.40 0.90 -1.75 0.90 -0.95 0 -1.75 -0.20 -1.75 -0.45z"/>
  <path d="M95 47.55 c0 -0.50 1.20 -1.10 2.75 -1.40 0.55 -0.10 1.35 -0.30 1.75 -0.50 1.75 -0.75 2.50 -0.65 2.50 0.35 0 0.80 -0.35 1 -1.75 1 -0.95 0 -1.75 0.25 -1.75 0.50 0 0.30 -0.80 0.50 -1.75 0.50 -0.95 0 -1.75 -0.20 -1.75 -0.45z"/>
  <path d="M158 47.10 c0 -0.95 0.95 -1.10 2.65 -0.35 1.40 0.60 0.95 1.25 -0.90 1.25 -1.35 0 -1.75 -0.20 -1.75 -0.90z"/>
  <path d="M141 42 c0 -1 0.75 -1.10 2.65 -0.25 1.40 0.60 0.95 1.25 -0.90 1.25 -1.40 0 -1.75 -0.20 -1.75 -1z"/>
  <path d="M116.50 41 c0 -0.25 0.35 -0.50 0.75 -0.50 0.40 0 0.75 -0.20 0.75 -0.40 0 -0.20 0.40 -0.40 0.90 -0.45 0.45 -0.05 1.45 -0.20 2.25 -0.35 1.10 -0.25 1.35 -0.15 1.35 0.60 0 0.75 -0.50 1.05 -1.85 1.30 -2.75 0.45 -4.15 0.35 -4.15 -0.20z"/>
  <path d="M136 40.60 c0 -0.95 0.95 -1.10 2.65 -0.35 1.40 0.60 0.95 1.25 -0.90 1.25 -1.35 0 -1.75 -0.20 -1.75 -0.90z"/>
 </g>
 <g fill="#ffdd47">
  <path d="M91.65 194.55 c-6.30 -2.15 -7.75 -3.10 -5.75 -3.75 0.95 -0.35 2.90 -1.90 5.95 -4.90 2.30 -2.20 5.55 -8.30 6.95 -12.90 1.40 -4.60 1.50 -10.25 0.25 -13.70 -0.55 -1.60 -1.35 -3.30 -1.80 -3.80 -0.40 -0.45 -0.75 -1.55 -0.75 -2.40 0 -1.50 0.10 -1.60 1.85 -1.60 1 0 3.60 0.50 5.80 1.05 4.75 1.30 6.75 2.85 8.40 6.55 1 2.30 1.15 3.50 1.15 9.15 0.05 7.65 -0.50 10.25 -3.45 16.60 -2.85 6.05 -7.30 10.85 -11 11.75 -0.55 0.10 -4 -0.80 -7.60 -2.05z"/>
  <path d="M229.65 182.55 c-3.05 -1.40 -5.10 -6.05 -2.65 -6.05 0.55 0 1 0.25 1 0.60 0 0.30 0.50 1.35 1.15 2.25 0.85 1.25 1.55 1.70 3.25 1.95 1.60 0.25 2.10 0.55 2.10 1.25 0 1.25 -2.05 1.25 -4.85 0z"/>
  <path d="M242.50 182.50 c0 -0.80 0.35 -1 1.50 -1 0.85 0 1.50 -0.20 1.50 -0.50 0 -0.25 0.40 -0.50 0.95 -0.50 0.65 0 1 -0.45 1.25 -1.50 0.20 -1.05 0.55 -1.50 1.30 -1.50 2.35 0 0.20 4.05 -2.80 5.30 -2.40 1 -3.70 0.90 -3.70 -0.30z"/>
  <path d="M226.20 168.20 c0.60 -10.65 2.65 -17.30 6.35 -20.75 l2.05 -1.90 -2 -1 c-2.05 -1.05 -4.35 -3.60 -5.85 -6.50 -1.10 -2.15 -0.85 -7.45 0.45 -10 0.90 -1.75 3.60 -4.35 5.60 -5.45 0.65 -0.35 1.20 -0.95 1.20 -1.35 0 -0.40 0.35 -0.75 0.75 -0.75 0.50 0 0.75 0.50 0.75 1.50 0 1.10 0.50 1.85 2 3.05 4.45 3.55 4.60 12.90 0.30 17.20 -0.70 0.70 -1.05 1.25 -0.80 1.25 0.30 0 0.50 0.90 0.50 2 0 1.75 -0.15 2 -1.35 2.30 -4.10 1.05 -7.45 9.55 -8 20.35 -0.30 5.40 -0.40 5.85 -1.30 5.85 -0.95 0 -1 -0.20 -0.65 -5.80z"/>
  <path d="M248 167.05 c0 -2.75 -1.35 -10.05 -2.25 -12.20 -0.40 -1 -0.75 -2.40 -0.75 -3.10 0 -0.90 -0.25 -1.25 -0.95 -1.25 -0.55 0 -1.40 -0.55 -1.95 -1.25 -0.55 -0.70 -1.70 -1.40 -2.55 -1.55 -1.40 -0.30 -1.55 -0.50 -1.55 -2.25 0 -1.80 0.10 -1.95 1.40 -1.95 0.75 0 2.10 -0.45 3 -1 0.90 -0.55 2.05 -1 2.60 -1 0.75 0 1 -0.35 1 -1.25 0 -0.70 0.20 -1.25 0.45 -1.25 0.25 0 0.75 -1 1.10 -2.25 0.45 -1.60 0.95 -2.25 1.55 -2.25 1.40 0 1.15 2.45 -0.55 5.05 -1.80 2.80 -3.35 4.20 -5.75 5.20 l-1.95 0.80 1.75 1.20 c3.40 2.30 5.40 6.55 6.65 14.40 1.05 6.45 1 7.85 -0.25 7.85 -0.85 0 -1 -0.35 -1 -1.95z"/>
  <path d="M247.35 130.35 c-0.90 -2.20 -3.45 -5.35 -4.35 -5.35 -0.25 0 -0.50 -0.55 -0.50 -1.25 0 -1.45 0.80 -1.30 3.45 0.65 1.65 1.20 4.05 5.50 4.05 7.25 0 1.70 -1.75 0.90 -2.65 -1.30z"/>
  <path d="M234 90.25 c0 -0.40 -0.55 -0.85 -1.25 -1.05 -1.95 -0.50 -1.55 -1.70 0.50 -1.70 1.65 0 1.75 0.10 1.75 1.75 0 0.95 -0.20 1.75 -0.50 1.75 -0.25 0 -0.50 -0.35 -0.50 -0.75z"/>
 </g>
 <g fill="#64b9fc">
  <path d="M166.25 217.70 c-1.35 -0.45 -7.35 -2.30 -13.25 -4.20 -5.90 -1.90 -19.05 -5.95 -29.25 -9 -10.15 -3.05 -20.80 -6.25 -23.60 -7.10 -2.85 -0.85 -5.15 -1.70 -5.15 -1.85 0 -0.75 5.65 -0.10 10.25 1.15 8.15 2.25 38.55 11.55 51.90 15.90 7.45 2.40 12.85 3.90 13.50 3.75 2.95 -0.75 4.75 -1.65 5.15 -2.55 0.25 -0.60 0.95 -1.25 1.60 -1.55 0.60 -0.25 1.10 -0.75 1.10 -1.15 0 -0.95 2.20 -4.10 2.90 -4.10 0.30 0 0.60 -0.55 0.60 -1.20 0 -0.65 0.45 -2.15 0.95 -3.35 0.55 -1.20 1.25 -3.60 1.60 -5.30 0.50 -2.45 0.85 -3.15 1.55 -3.15 1.20 0 1.15 1.35 -0.15 6 -2.15 7.80 -7.35 15.35 -12.05 17.50 -2.55 1.15 -4.25 1.20 -7.65 0.20z"/>
  <path d="M74 189.30 c-25.50 -7.95 -52.65 -16.15 -54.60 -16.55 -2.55 -0.50 -4.80 -3.05 -5.90 -6.60 -1.30 -4.25 -1.30 -5.65 0 -5.65 0.60 0 1 0.35 1 0.90 0 1.65 2.25 8.10 2.85 8.10 0.30 0 1.40 0.45 2.35 1.05 1.70 1 1.80 1 3.65 0.15 4.95 -2.30 10.40 -10.35 12.40 -18.20 1.85 -7.25 0.20 -15.40 -3.60 -17.75 -1.65 -1.05 -2.25 -2.75 -0.90 -2.75 0.40 0 1.45 0.30 2.35 0.70 0.90 0.40 6.70 2.25 12.90 4.10 6.20 1.85 11.55 3.45 11.95 3.60 0.50 0.20 0.55 -0.05 0.30 -0.90 -0.30 -1 -0.25 -1.10 0.55 -0.80 2.20 0.85 7 2.40 14.95 4.75 4.70 1.40 12 3.60 16.25 4.90 5.20 1.55 8.10 2.70 8.90 3.45 1.40 1.50 1.40 1.75 -0.15 1.50 l-1.25 -0.25 0.95 1.35 c5.05 7.15 2.25 24.60 -5.25 32.60 -2.90 3.10 -6.45 5.50 -8.15 5.50 -0.70 -0.05 -5.90 -1.45 -11.55 -3.20z"/>
  <path d="M106.10 188.25 c1.45 -2.20 1.90 -2.20 1.90 0 0 1.60 -0.10 1.75 -1.50 1.75 l-1.50 0 1.10 -1.75z"/>
  <path d="M184.55 185.90 c-0.75 -2.80 -2.45 -5.05 -4.75 -6.25 -0.80 -0.40 -5.30 -1.85 -10 -3.25 -8.35 -2.40 -25.05 -7.45 -44.05 -13.25 l-9.50 -2.90 -0.15 -1.95 -0.15 -1.90 2.15 0.30 c1.20 0.15 3.55 0.25 5.30 0.25 2.85 0 3.10 0.10 3.10 1.10 0 1.05 -0.15 1.05 -3.85 0.75 -2.55 -0.20 -3.55 -0.15 -2.90 0.15 0.80 0.40 26.35 8.20 55.20 16.85 3.15 0.95 6.40 2.10 7.25 2.60 1.75 0.95 4.15 5.30 4.65 8.25 0.25 1.60 0.15 1.85 -0.70 1.85 -0.75 0 -1.10 -0.60 -1.60 -2.60z"/>
  <path d="M112.35 166.15 c-0.20 -0.15 -0.35 -0.95 -0.35 -1.75 0 -1.05 0.25 -1.40 1 -1.40 0.80 0 1 0.35 1 1.75 0 1.65 -0.80 2.30 -1.65 1.40z"/>
  <path d="M130 158 c0 -0.85 0.35 -1 2.50 -1 1.80 0 2.50 0.20 2.50 0.70 0 0.75 -1.50 1.30 -3.60 1.30 -1.05 0 -1.40 -0.25 -1.40 -1z"/>
  <path d="M12.50 155.85 c0 -2.15 1.95 -8.85 3.50 -12.10 1.95 -4.10 4.75 -7.60 7.90 -9.90 2.80 -2.10 4.10 -2.35 4.10 -0.85 0 0.55 -0.35 1 -0.75 1 -0.40 0 -0.75 0.25 -0.75 0.50 0 0.30 -0.45 0.50 -1 0.50 -0.55 0 -1 0.30 -1 0.70 0 0.35 -0.90 1.50 -2 2.50 -1.10 1 -2 2 -2 2.20 0 0.25 -0.40 0.85 -0.90 1.40 -1.30 1.40 -4 8.30 -4.75 12.05 -0.45 2.45 -0.75 3.15 -1.45 3.15 -0.60 0 -0.90 -0.40 -0.90 -1.15z"/>
  <path d="M200 96 c0 -0.80 0.35 -1 1.75 -1 2 0 2.45 1.20 0.65 1.70 -1.90 0.50 -2.40 0.35 -2.40 -0.70z"/>
  <path d="M230 68.50 c0 -1.05 0.50 -1.20 2.40 -0.70 1.80 0.50 1.35 1.70 -0.65 1.70 -1.40 0 -1.75 -0.20 -1.75 -1z"/>
  <path d="M33 65.80 c0 -0.65 1.40 -1.30 2.90 -1.30 0.30 0 0.60 0.45 0.60 1 0 0.80 -0.35 1 -1.75 1 -1.15 0 -1.75 -0.25 -1.75 -0.70z"/>
  <path d="M209.50 62.50 c0 -1.05 0.50 -1.20 2.40 -0.70 1.80 0.50 1.35 1.70 -0.65 1.70 -1.40 0 -1.75 -0.20 -1.75 -1z"/>
  <path d="M46.50 61.80 c0 -0.65 1.40 -1.30 2.90 -1.30 0.30 0 0.60 0.45 0.60 1 0 0.80 -0.35 1 -1.75 1 -1.15 0 -1.75 -0.25 -1.75 -0.70z"/>
  <path d="M196 58.50 c0 -1.05 0.50 -1.20 2.40 -0.70 1.80 0.50 1.35 1.70 -0.65 1.70 -1.40 0 -1.75 -0.20 -1.75 -1z"/>
  <path d="M67 55.80 c0 -0.65 1.40 -1.30 2.90 -1.30 0.30 0 0.60 0.45 0.60 1 0 0.80 -0.35 1 -1.75 1 -1.15 0 -1.75 -0.25 -1.75 -0.70z"/>
  <path d="M182.50 55 c0 -0.25 -0.80 -0.50 -1.75 -0.50 -1.40 0 -1.75 -0.20 -1.75 -1 0 -1.20 0.20 -1.20 4 -0.15 3.40 0.90 4.10 2.15 1.25 2.15 -0.95 0 -1.75 -0.20 -1.75 -0.50z"/>
  <path d="M77 52.85 c0 -0.40 1.25 -1.05 3 -1.50 3.80 -1.05 4 -1.05 4 0.15 0 0.80 -0.35 1 -1.75 1 -0.95 0 -1.75 0.25 -1.75 0.50 0 0.30 -0.80 0.50 -1.75 0.50 -1.15 0 -1.75 -0.25 -1.75 -0.65z"/>
  <path d="M170.50 51 c0 -1.05 0.50 -1.20 2.40 -0.70 1.80 0.50 1.35 1.70 -0.65 1.70 -1.40 0 -1.75 -0.20 -1.75 -1z"/>
  <path d="M162 49 c0 -0.25 -0.80 -0.50 -1.75 -0.50 -1.40 0 -1.75 -0.20 -1.75 -1 0 -1.20 0.20 -1.20 4 -0.15 3.40 0.90 4.10 2.15 1.25 2.15 -0.95 0 -1.75 -0.20 -1.75 -0.50z"/>
  <path d="M101 45.80 c0 -0.65 1.40 -1.30 2.90 -1.30 0.30 0 0.60 0.45 0.60 1 0 0.80 -0.35 1 -1.75 1 -1.15 0 -1.75 -0.25 -1.75 -0.70z"/>
  <path d="M145 43.50 c0 -1.05 0.50 -1.20 2.40 -0.70 1.80 0.50 1.35 1.70 -0.65 1.70 -1.40 0 -1.75 -0.20 -1.75 -1z"/>
  <path d="M114.50 41.85 c0 -0.40 1.25 -1.05 3 -1.50 3.80 -1.05 4 -1.05 4 0.15 0 0.80 -0.35 1 -1.75 1 -0.95 0 -1.75 0.25 -1.75 0.50 0 0.30 -0.80 0.50 -1.75 0.50 -1.15 0 -1.75 -0.25 -1.75 -0.65z"/>
 </g>
 <g fill="#f7c62f">
  <path d="M231.25 182.95 c-2.40 -0.60 -4.05 -2.05 -4.75 -4.25 -0.80 -2.35 0.20 -16.90 1.50 -21.90 1.45 -5.65 4.05 -9.65 6.90 -10.55 1.40 -0.40 1.45 -1.25 0.05 -1.25 -0.55 0 -1.45 -0.25 -2.05 -0.55 -0.95 -0.50 -0.85 -0.65 1.40 -2.20 2.80 -1.85 3.95 -3.55 4.70 -7 0.80 -3.45 -0.30 -6.45 -3.25 -8.95 -1.25 -1 -2.70 -1.90 -3.25 -1.95 -1.30 -0.10 -1 -1.05 0.40 -1.25 0.90 -0.15 1.10 -0.50 1.10 -1.90 l0 -1.70 4 0 c3.95 0 4 0 4 1.25 0 0.90 0.55 1.55 1.90 2.45 5.90 3.70 7.75 10.80 4.35 16.60 -1.50 2.60 -5.20 5.20 -7.35 5.20 -0.75 0 -1.40 0.25 -1.40 0.50 0 0.30 0.45 0.50 1 0.50 1.60 0 5.05 3.50 6.35 6.40 1 2.25 2.65 9.70 2.65 11.90 0 0.40 -0.45 0.70 -1 0.70 -0.75 0 -1 -0.35 -1 -1.35 0 -1.75 -1.60 -9.30 -2 -9.65 -0.75 -0.55 -1.50 -2.55 -1.50 -3.90 0 -1.35 -0.20 -1.50 -1.85 -1.75 -1.05 -0.15 -2.45 -0.40 -3.15 -0.60 -0.70 -0.15 -1.85 -0.10 -2.60 0.20 l-1.35 0.50 0.95 1.90 c1.30 2.75 1.85 5.15 2.75 11.80 0.85 6.65 1 15.25 0.25 17.80 l-0.45 1.65 3.35 -0.20 c2.85 -0.15 3.55 -0.40 4.75 -1.55 0.75 -0.75 1.35 -1.70 1.35 -2.10 0 -0.40 0.45 -0.75 1 -0.75 1.20 0 1.30 1 0.30 2.95 -1.45 2.75 -2.95 3.25 -9.80 3.40 -3.45 0.05 -7.15 -0.10 -8.25 -0.40z"/>
  <path d="M248 168.25 c0 -2.45 1.15 -3.20 1.70 -1.10 0.60 2.20 0.35 3.35 -0.70 3.35 -0.85 0 -1 -0.35 -1 -2.25z"/>
  <path d="M98.15 153.65 c0.20 -0.30 0 -0.65 -0.40 -0.85 -1.50 -0.55 -0.70 -1.30 1.50 -1.30 1.95 0 2.25 0.15 2.25 1.05 0 0.75 -0.25 1 -1.10 0.90 -0.65 -0.10 -1.45 0.05 -1.85 0.25 -0.45 0.30 -0.60 0.25 -0.40 -0.05z"/>
  <path d="M233.90 90.65 l-0.15 -1.40 -4 0.10 c-7.45 0.25 -11.50 0.10 -20 -0.65 -4.65 -0.40 -12.65 -1.05 -17.75 -1.40 -15.40 -1.20 -59.10 -4.80 -61.45 -5.10 -3.20 -0.40 -4.55 -1.95 -4.55 -5.20 0 -2.05 0.25 -2.80 1.25 -3.75 1.80 -1.85 -1.85 -2 52.25 2.45 15 1.25 29.75 2.50 32.75 2.80 3.05 0.25 10 0.85 15.50 1.25 13.25 1 13.55 1.05 14.75 2.75 1.20 1.70 1.25 2 0.25 2 -0.50 0 -0.75 0.55 -0.75 1.75 0 1.70 -0.15 1.85 -3 3.10 -1.65 0.70 -3 1.60 -3 1.95 0 0.40 -0.45 0.70 -0.95 0.70 -0.70 0 -1.05 -0.40 -1.15 -1.35z"/>
 </g>
 <g fill="#2fa7fd">
  <path d="M155.25 214 c-13.95 -4.55 -44.30 -13.85 -51.40 -15.70 -2.70 -0.70 -5.50 -1.60 -6.25 -2 -1.25 -0.65 -1.30 -0.75 -0.35 -1.05 1.65 -0.55 3.95 -1.85 5.15 -2.90 l1.10 -1 0 1.80 c0 1.30 -0.20 1.85 -0.75 1.85 -1.65 0 -0.60 0.95 1.70 1.50 2.15 0.50 2.65 0.45 4.40 -0.40 3.90 -2 8.70 -7.90 10.30 -12.65 2.85 -8.30 3.10 -12.90 1.05 -18.45 -1.15 -3.10 -1.60 -3.70 -3.05 -4.30 -1.40 -0.60 -1.65 -0.95 -1.65 -2.45 0 -1.65 0.10 -1.75 1.65 -1.75 0.95 0 1.85 0.15 2.05 0.40 0.20 0.20 1.10 0.65 1.95 0.95 1.55 0.60 1.55 0.65 -1 0.50 -1.45 -0.05 -2.45 0.05 -2.25 0.25 0.20 0.15 5.55 1.90 11.85 3.80 22.55 6.90 38.05 11.55 40.30 12.10 2.80 0.70 3.65 2.20 4.50 7.65 1.75 10.95 -2.25 23.45 -9.65 30.05 -1.30 1.20 -2.40 2.35 -2.40 2.50 0 0.15 0.60 0.30 1.30 0.30 2.50 0 5.20 1.10 5.20 2.10 0 0.55 -0.35 0.90 -0.85 0.85 -0.50 0 -6.30 -1.80 -12.90 -3.95z"/>
  <path d="M171 217 c0 -0.55 0.35 -1 0.75 -1 0.45 0 1.25 -0.45 1.85 -1 0.65 -0.60 1.80 -1 2.75 -1 1.55 0 1.65 -0.10 1.65 -1.75 0 -1.65 0.10 -1.75 1.55 -1.75 1.40 0 1.50 0.10 0.90 0.90 -2.70 3.60 -6.65 6.60 -8.70 6.60 -0.40 0 -0.75 -0.45 -0.75 -1z"/>
  <path d="M181 208.05 c0 -1.95 0.45 -3.05 1.30 -3.05 0.40 0 0.70 -0.50 0.70 -1.25 0 -2.55 1.15 -5.75 2.10 -5.75 0.50 0 0.90 0.30 0.90 0.65 0 2.15 -3.65 10.85 -4.55 10.85 -0.25 0 -0.45 -0.65 -0.45 -1.45z"/>
  <path d="M185 195 c0 -1.65 0.15 -2 1 -2 1.05 0 1.25 0.80 0.70 2.90 -0.55 1.95 -1.70 1.35 -1.70 -0.90z"/>
  <path d="M105.10 189.65 c1.25 -1.35 4.40 -7.20 5.10 -9.50 0.60 -1.85 1.80 -1.40 1.80 0.60 0 0.95 -0.20 1.75 -0.50 1.75 -0.25 0 -0.50 0.45 -0.50 1 0 1.70 -1.60 4.50 -2.60 4.50 -0.65 0 -0.90 0.40 -0.90 1.50 0 1.40 -0.15 1.50 -1.85 1.50 l-1.85 0 1.30 -1.35z"/>
  <path d="M184.75 186.75 c-0.20 -1.50 -0.55 -2.75 -0.80 -2.75 -0.25 0 -0.45 -0.80 -0.45 -1.75 0 -0.95 0.20 -1.75 0.45 -1.75 0.85 0 3.05 5.90 3.05 8.15 0 0.50 -0.40 0.85 -0.95 0.85 -0.80 0 -1.05 -0.50 -1.30 -2.75z"/>
  <path d="M175.90 178.40 c-1.35 -0.35 -1.90 -0.75 -1.90 -1.45 0 -1.15 0.90 -1.15 4.20 -0.05 4.65 1.60 2.65 2.80 -2.30 1.50z"/>
  <path d="M111.20 177.20 c0.75 -1.95 1.35 -8.05 1.10 -10.90 -0.35 -3.75 -1.05 -6.05 -2.65 -8.15 l-1.20 -1.65 1.75 0 c1.70 0 1.80 0.10 1.80 1.75 0 1.20 0.25 1.75 0.70 1.75 1.35 0 2.05 8.90 1.15 15.15 -0.40 2.60 -0.55 2.85 -1.70 2.85 -0.95 0 -1.20 -0.20 -0.95 -0.80z"/>
  <path d="M18.90 172.45 c-1.40 -0.80 -1.05 -1.45 0.80 -1.45 0.90 0 2.70 -0.15 3.95 -0.30 1.85 -0.25 2.35 -0.55 2.45 -1.40 0.10 -0.65 0.60 -1.10 1.30 -1.20 0.70 -0.10 1.10 -0.50 1.10 -1.20 0 -0.55 0.40 -1.10 1 -1.25 0.55 -0.15 1 -0.70 1 -1.20 0 -0.55 0.15 -0.95 0.40 -0.95 0.20 0 0.75 -1.05 1.30 -2.30 0.50 -1.20 1.20 -2.50 1.50 -2.85 0.80 -0.85 2.80 -9.15 2.80 -11.75 0 -1.45 0.20 -2.10 0.70 -2.10 2.50 0 0.45 11 -3.35 18.25 -1.85 3.50 -6.30 8.20 -8.95 9.40 -2 0.95 -4.70 1.10 -6 0.30z"/>
  <path d="M15.55 170.35 c-0.75 -0.90 -2.05 -4.15 -2.05 -5.10 0 -0.40 0.45 -0.75 1 -0.75 0.80 0 1 0.35 1 1.75 0 1.20 0.25 1.75 0.75 1.75 0.50 0 0.75 0.50 0.75 1.50 0 1.60 -0.55 1.90 -1.45 0.85z"/>
  <path d="M12.80 162.40 c-0.50 -1.90 -0.35 -2.40 0.70 -2.40 0.80 0 1 0.35 1 1.75 0 2 -1.20 2.45 -1.70 0.65z"/>
  <path d="M12.70 155.65 c0.70 -4.10 0.90 -4.65 1.60 -4.65 0.80 0 0.85 0.75 0.40 4.20 -0.25 1.85 -0.55 2.30 -1.30 2.30 -0.90 0 -0.95 -0.25 -0.70 -1.85z"/>
  <path d="M90.40 150.35 c-3 -0.90 -4.90 -1.75 -4.90 -2.20 0 -1 2.05 -0.80 7.05 0.70 3.50 1.05 4.45 1.55 4.45 2.25 0 1.20 -0.75 1.10 -6.60 -0.75z"/>
  <path d="M14 149.70 c0 -1.05 0.90 -2.70 1.50 -2.70 0.30 0 0.50 0.80 0.50 1.75 0 1.40 -0.20 1.75 -1 1.75 -0.55 0 -1 -0.35 -1 -0.80z"/>
  <path d="M73.40 145.20 c-12.50 -3.80 -14.05 -4.35 -14.30 -5.05 -0.35 -1.20 2.65 -0.65 11.65 2.10 4.95 1.55 9.95 3.05 11.15 3.35 1.55 0.35 2.10 0.75 2.10 1.45 0 1.35 -0.60 1.25 -10.60 -1.85z"/>
  <path d="M15.55 145.15 c0.80 -2.15 2.60 -5.15 3.05 -5.15 0.20 0 0.40 0.80 0.40 1.75 0 1.20 -0.25 1.75 -0.75 1.75 -0.50 0 -0.75 0.50 -0.75 1.50 0 1.25 -0.20 1.50 -1.25 1.50 -1.15 0 -1.20 -0.10 -0.70 -1.35z"/>
  <path d="M35.15 139.05 c-0.65 -1.60 -1.15 -3.55 -1.15 -4.30 0 -1.35 0.05 -1.40 1 -0.50 0.95 0.90 3 5.60 3 7 0 0.40 -0.40 0.75 -0.85 0.75 -0.65 0 -1.25 -0.90 -2 -2.95z"/>
  <path d="M22.75 135 c0.15 -0.25 0.95 -0.95 1.75 -1.50 l1.50 -1.05 0 1.50 c0 1.45 -0.15 1.55 -1.80 1.55 -1 0 -1.65 -0.20 -1.45 -0.50z"/>
 </g>
 <g fill="#e8b727">
  <path d="M94.50 195.50 c-0.65 -0.45 -0.65 -0.50 0 -0.45 0.40 0 1.20 0.20 1.75 0.45 l1 0.45 -1 0 c-0.55 0 -1.35 -0.20 -1.75 -0.45z"/>
  <path d="M234.85 182.50 c2.95 -1.20 3.80 -7.65 2.40 -18.55 -0.90 -7.05 -2.15 -11.65 -3.80 -13.90 -0.55 -0.75 -0.85 -1.70 -0.70 -2.15 0.70 -1.80 6.55 -2.55 9.15 -1.20 2.90 1.50 5.05 5.05 6.30 10.35 1 4.40 1.95 15.15 1.70 19.25 -0.20 3.10 -0.35 3.45 -2.05 5 l-1.85 1.70 -6.10 -0.05 c-4.10 0 -5.80 -0.15 -5.05 -0.45z"/>
  <path d="M110.15 158.70 c0.15 -0.20 -0.55 -1.05 -1.60 -1.90 -1.35 -1.15 -3.25 -2 -6.10 -2.75 -4.75 -1.25 -5.55 -1.60 -5.85 -2.45 -0.35 -1.05 2.90 -0.65 7.80 0.85 2.60 0.80 5.10 1.85 5.65 2.35 1.05 0.95 1.35 4.20 0.35 4.20 -0.30 0 -0.45 -0.15 -0.25 -0.30z"/>
  <path d="M241.30 121.60 c-0.30 -0.50 -1.35 -0.65 -3.75 -0.50 l-3.30 0.15 -0.15 -14.50 c-0.05 -7.95 0 -15.20 0.15 -16.05 0.25 -1.35 0.70 -1.75 3.80 -3.10 2.45 -1.10 3.55 -1.40 3.75 -0.95 0.40 1.15 -0.05 35.60 -0.50 34.95z"/>
  <path d="M205 88.80 c-7 -0.65 -16.10 -1.40 -20.25 -1.75 -23.55 -1.85 -55.50 -4.60 -56.35 -4.85 -1.90 -0.55 -2.40 -1.70 -2.40 -5.20 0 -3.70 0.55 -4.75 2.85 -5.30 1.20 -0.30 10 0.25 31.15 2.05 4.80 0.40 14.15 1.20 20.75 1.75 6.60 0.55 14.60 1.25 17.75 1.50 3.15 0.25 11.50 0.95 18.50 1.50 25.30 2 24.10 1.85 25.40 3.30 1.35 1.55 1.40 2.50 0.10 2.85 -0.65 0.15 -1.20 -0.15 -1.70 -0.90 -0.95 -1.40 -1.60 -1.55 -14.55 -2.50 -5.50 -0.40 -12.45 -1 -15.50 -1.25 -7.05 -0.65 -56.85 -4.80 -70.15 -5.85 -9.30 -0.70 -10.20 -0.70 -11.35 0.05 -2.75 1.80 -1.85 5.40 1.60 6.20 1.65 0.40 36.55 3.40 62.90 5.40 4.95 0.35 12.85 1 17.50 1.40 4.70 0.40 10.85 0.90 13.75 1.15 4.90 0.30 5.10 0.40 3 0.80 -4.30 0.85 -10.30 0.75 -23 -0.35z"/>
 </g>
 <g fill="#1f96f8">
  <path d="M162.95 216.35 c-4.55 -1.50 -4.80 -1.65 -3.95 -2.45 0.45 -0.50 1.05 -0.90 1.35 -0.90 0.95 0 5.45 -4.35 7.35 -7.10 2.30 -3.35 5.10 -11.15 5.55 -15.45 0.60 -5.75 -1.35 -14 -3.65 -15.45 -1.20 -0.80 0.95 -0.30 7 1.55 5.40 1.70 7 2.70 8.35 5.35 4.25 8.40 1 24.05 -6.70 31.85 -4.65 4.70 -7.40 5.15 -15.30 2.60z"/>
  <path d="M102 197.65 c-2.35 -0.70 -4.90 -1.45 -5.75 -1.65 -1.60 -0.45 -1.75 -0.35 1.55 -0.70 0.30 -0.05 0.90 -0.35 1.30 -0.70 0.40 -0.30 0.90 -0.45 1.05 -0.25 0.20 0.15 0.35 0.05 0.35 -0.25 0 -0.35 0.20 -0.60 0.45 -0.60 0.65 0 5.50 -5 5.80 -6.10 0.20 -0.50 0.55 -0.90 0.85 -0.90 0.30 0 0.45 -0.15 0.25 -0.30 -0.15 -0.20 0.05 -0.65 0.45 -1.05 0.40 -0.40 0.60 -0.95 0.45 -1.20 -0.20 -0.25 -0.05 -0.45 0.30 -0.45 0.35 0 0.45 -0.15 0.30 -0.30 -0.15 -0.20 -0.05 -0.80 0.25 -1.40 0.35 -0.55 0.65 -1.15 0.65 -1.30 0.35 -1.45 0.95 -3.35 1.15 -3.75 0.30 -0.50 0.40 -0.90 0.90 -4.50 0.60 -4.45 0.20 -8.45 -1.15 -11.75 -0.30 -0.70 -0.50 -1.40 -0.45 -1.60 0 -0.15 -0.80 -1.15 -1.80 -2.15 -1.05 -1 -1.90 -1.90 -1.90 -2 0 -0.15 1.05 -0.25 2.40 -0.25 2.65 0 7.35 1.35 10.35 2.95 l2 1.10 -2.35 -0.20 c-1.35 -0.15 -2.40 -0.15 -2.40 -0.05 0 0.10 0.75 0.50 1.70 0.90 1.45 0.60 1.85 1.15 2.95 4.35 2.30 6.65 2.15 11.80 -0.70 20.50 -1.90 5.80 -6.40 11.40 -11.05 13.75 -2.85 1.45 -2.65 1.45 -7.90 -0.15z"/>
  <path d="M21 172.15 c0 -0.90 3.40 -2.65 5.15 -2.65 0.50 0 0.85 -0.40 0.85 -0.90 0 -1.15 0.95 -2.10 2.10 -2.10 0.65 0 0.90 -0.40 0.90 -1.25 0 -0.70 0.25 -1.25 0.50 -1.25 0.30 0 0.50 -0.35 0.50 -0.75 0 -0.45 0.45 -0.75 1.25 -0.75 1.70 0 1.60 0.45 -0.70 3.50 -2.35 3.10 -4.80 5.25 -7.25 6.25 -2.35 1 -3.30 0.95 -3.30 -0.10z"/>
  <path d="M16.05 170.50 c-3.70 -3.70 -4.40 -13.05 -1.70 -21.85 0.95 -3.05 2.15 -3.55 2.15 -0.90 0 0.95 -0.20 1.75 -0.40 1.75 -0.25 0 -0.75 1.90 -1.10 4.20 -0.70 4.40 -0.35 11.90 0.55 12.20 0.25 0.10 0.45 0.70 0.45 1.35 0 0.70 0.35 1.25 1 1.40 0.75 0.20 1 0.70 1 1.80 0 0.85 -0.10 1.55 -0.20 1.55 -0.15 0 -0.90 -0.70 -1.75 -1.50z"/>
  <path d="M33.50 159.75 c0 -0.65 0.55 -2.90 1.25 -4.95 0.70 -2.05 1.25 -4.20 1.25 -4.75 0 -0.70 0.30 -1.05 1 -1.05 0.55 0 1 0.30 1 0.65 0 1.30 -1.95 8.30 -2.75 9.80 -0.95 1.85 -1.75 2 -1.75 0.30z"/>
  <path d="M89.90 150.15 c-1.65 -0.40 -1 -1.65 0.85 -1.65 1.40 0 1.75 0.20 1.75 1 0 1 -0.70 1.15 -2.60 0.65z"/>
  <path d="M84.15 148.40 c-2.05 -0.65 -2.20 -1.90 -0.25 -1.90 2.35 0 3.60 0.55 3.60 1.55 0 1.05 -0.85 1.15 -3.35 0.35z"/>
  <path d="M70.90 144.30 c-5.05 -1.60 -6.40 -2.80 -3.15 -2.80 0.95 0 1.75 0.20 1.75 0.45 0 0.20 1.05 0.55 2.35 0.70 1.30 0.15 2.45 0.50 2.55 0.80 0.10 0.30 0.85 0.55 1.65 0.55 1.10 0 1.45 0.25 1.45 1 0 1.30 -0.65 1.25 -6.60 -0.70z"/>
  <path d="M16 144.25 c0.65 -1.65 3.75 -6.55 4.45 -6.95 0.35 -0.25 0.55 0.25 0.55 1.40 0 1 -0.20 1.80 -0.50 1.80 -0.25 0 -0.50 0.35 -0.50 0.75 0 0.40 -0.35 0.75 -0.75 0.75 -0.40 0 -0.75 0.45 -0.75 0.95 0 1.70 -0.60 2.55 -1.80 2.55 -1.05 0 -1.10 -0.15 -0.70 -1.25z"/>
  <path d="M36 141.25 c0 -0.95 -0.20 -1.75 -0.50 -1.75 -0.25 0 -0.50 -0.65 -0.50 -1.50 0 -1 -0.25 -1.50 -0.75 -1.50 -0.40 0 -0.75 -0.35 -0.75 -0.75 0 -0.40 -0.35 -0.75 -0.75 -0.75 -0.40 0 -0.75 -0.20 -0.75 -0.50 0 -0.25 -0.45 -0.50 -1 -0.50 -0.65 0 -1 -0.35 -1 -1 0 -1.30 1.25 -1.30 3.40 0 1.80 1.10 3.95 5.05 4.45 8.25 0.25 1.55 0.15 1.75 -0.80 1.75 -0.85 0 -1.05 -0.30 -1.05 -1.75z"/>
  <path d="M61.90 141.65 c-1.65 -0.40 -1 -1.65 0.85 -1.65 1.40 0 1.75 0.20 1.75 1 0 1 -0.70 1.15 -2.60 0.65z"/>
  <path d="M22 135.75 c0 -0.10 1.05 -1 2.30 -2 2.65 -2 4.20 -2.25 4.20 -0.75 0 0.75 -0.45 1.10 -1.50 1.35 -0.80 0.15 -1.50 0.60 -1.50 0.95 0 0.45 -0.60 0.70 -1.75 0.70 -0.95 0 -1.75 -0.10 -1.75 -0.25z"/>
 </g>
 <g fill="#1784fb">
  <path d="M18.75 172.30 c-4.25 -1.90 -6 -6.55 -5.60 -15 0.45 -10.35 4.80 -19.20 11.70 -23.75 2.70 -1.80 4.15 -2 4.15 -0.55 0 0.55 -0.20 1 -0.45 1 -0.25 0 -0.45 3 -0.40 6.65 0 11.95 -2.50 19.30 -9 25.75 -1.45 1.50 -2.65 2.85 -2.65 3.10 0 0.45 3.05 1.05 5.40 1 1.05 0 2.15 -0.45 3 -1.25 0.75 -0.70 1.95 -1.25 2.70 -1.25 1.15 0 1.40 -0.20 1.40 -1.25 0 -1 2.55 -5.70 4.35 -8 0.55 -0.65 2.65 -8.85 2.65 -10.20 0 -0.70 0.30 -1.05 1 -1.05 1.30 0 1.30 1.20 0 6.25 -2.15 8.35 -7.10 15.65 -12.25 18.10 -2.85 1.30 -3.90 1.40 -6 0.45z"/>
  <path d="M112.90 156.90 c-2.05 -0.65 -3.40 -1.30 -3.40 -1.70 0 -0.85 2.40 -0.90 5.05 -0.10 1.55 0.45 1.95 0.80 1.95 1.75 0 0.60 -0.05 1.15 -0.10 1.10 -0.10 -0.05 -1.65 -0.50 -3.50 -1.05z"/>
  <path d="M35.75 141.50 c-0.20 -1.65 -0.55 -3 -0.75 -3 -0.25 0 -0.60 -0.45 -0.75 -1.05 -0.50 -1.45 -2 -2.85 -3.50 -3.25 -0.80 -0.20 -1.25 -0.65 -1.25 -1.30 0 -0.85 0.25 -1 1.50 -0.75 0.80 0.20 2.05 0.70 2.75 1.15 1.60 1.05 3.60 5.30 4.05 8.60 0.30 2.40 0.25 2.60 -0.70 2.60 -0.85 0 -1.05 -0.45 -1.35 -3z"/>
 </g>
 <g fill="#678d97">
  <path d="M103.50 191.25 c0.95 -0.95 1.80 -1.75 1.95 -1.75 0.15 0 -0.50 0.80 -1.45 1.75 -0.95 0.95 -1.80 1.75 -1.95 1.75 -0.15 0 0.50 -0.80 1.45 -1.75z"/>
  <path d="M124.40 158.65 c-0.50 -0.10 -0.90 -0.55 -0.90 -0.95 0 -0.55 0.95 -0.70 4.75 -0.70 3.70 0 4.75 0.15 4.75 0.70 0 0.35 -0.50 0.80 -1.10 1 -1.30 0.30 -6.20 0.30 -7.50 -0.05z"/>
  <path d="M115.15 157.40 c-3.50 -1.20 -4.20 -2.40 -1.40 -2.40 0.95 0 1.75 0.20 1.75 0.45 0 0.25 1.35 0.60 3 0.80 2.50 0.30 3 0.50 3 1.30 0 1.30 -2.30 1.25 -6.35 -0.15z"/>
  <path d="M135 157.65 c0 -0.90 0.45 -1 5.40 -1.30 11 -0.65 22.45 -3 34.45 -7.05 4.35 -1.45 8.85 -3.15 10 -3.70 1.15 -0.60 2.70 -1.10 3.40 -1.10 0.75 0 1.25 -0.30 1.25 -0.70 0 -0.35 0.70 -0.95 1.55 -1.30 2.05 -0.85 4.20 -3.10 4.90 -5.05 0.35 -1.05 0.55 -8.25 0.55 -21.55 0 -15.50 0.15 -19.95 0.65 -20.10 10.35 -3.20 25.55 -7.30 26.95 -7.30 2.40 0 2.85 0.80 0.80 1.40 -0.90 0.25 -7.20 2.10 -14 4.10 l-12.40 3.65 0 18.05 c0 9.95 -0.20 19.35 -0.50 21 -0.70 4.40 -2.05 5.80 -9 9.25 -12.75 6.40 -32.10 11.30 -48.60 12.35 -5.20 0.35 -5.40 0.30 -5.40 -0.65z"/>
  <path d="M104 154.40 c-2.35 -0.80 -4.70 -1.55 -5.25 -1.60 -0.55 -0.10 -1.65 -0.45 -2.50 -0.75 -1.40 -0.60 -14.60 -4.65 -29.95 -9.25 -6.45 -1.90 -7.05 -2.20 -7.60 -3.55 -1.05 -2.40 -0.90 -4.25 0.30 -4.25 0.70 0 1 0.35 1 1.05 0 2.20 0.95 2.90 6.15 4.45 2.80 0.85 7.15 2.20 9.60 3 5.60 1.75 26.20 8.05 31.40 9.55 2.95 0.90 3.85 1.35 3.85 2.05 0 1.25 -1.80 1.10 -7 -0.70z"/>
  <path d="M57.80 126.40 c-0.15 -0.65 -0.30 -2.60 -0.30 -4.40 0 -3.90 0.40 -5.50 1.30 -5.50 0.55 0 0.70 1.15 0.70 5.50 0 4.35 -0.15 5.50 -0.70 5.50 -0.35 0 -0.80 -0.50 -1 -1.10z"/>
  <path d="M99 111.50 c-11.45 -3.45 -38.95 -11.50 -39.20 -11.50 -0.15 0 -0.30 2.35 -0.30 5.25 0 4.35 -0.15 5.25 -0.75 5.25 -0.40 0 -0.80 -0.05 -0.80 -0.10 -0.05 -0.10 -0.25 -3.05 -0.40 -6.60 l-0.30 -6.45 -24.50 -7.20 c-32.45 -9.55 -31.20 -9.15 -32.05 -10.35 -0.95 -1.35 -0.85 -2.80 0.20 -4.20 0.90 -1.15 4.50 -2.25 83.10 -25.35 8.10 -2.40 20.50 -6.05 27.50 -8.15 7.90 -2.35 13.90 -3.85 15.75 -3.95 3.55 -0.25 -1.70 -1.65 64.25 17.75 27.10 7.95 52.15 15.30 55.70 16.30 7.85 2.25 8.75 2.85 8.80 5.60 0 1.80 -0.20 2.10 -1.85 3.05 -1.85 1 -10.50 3.65 -11.90 3.65 -0.40 0 -0.75 -0.40 -0.75 -0.85 0 -0.70 1.10 -1.20 4.90 -2.30 2.65 -0.80 5.55 -1.90 6.40 -2.45 l1.55 -1.05 -1 -1 c-1.25 -1.25 -11.80 -4.35 -12.85 -3.80 -0.40 0.20 -2.75 0.95 -5.25 1.65 -2.45 0.70 -7.65 2.20 -11.50 3.35 l-7 2.05 -7.25 -0.55 c-4 -0.35 -9.70 -0.80 -12.75 -1.05 -3 -0.30 -10.90 -0.95 -17.50 -1.50 -6.60 -0.55 -16.05 -1.35 -21 -1.75 -26.30 -2.20 -27.70 -2.30 -28.85 -1.70 -1.55 0.80 -1.90 1.40 -1.90 3.45 0 3.50 0.70 3.75 12.75 4.75 5.50 0.40 13.60 1.10 18 1.50 4.40 0.40 12.50 1.05 18 1.50 13.15 1 13.35 1.05 13.15 2.35 -0.10 0.85 -1.45 1.40 -7.90 3.40 -4.25 1.30 -10.35 3.10 -13.50 4 -3.15 0.85 -8.20 2.30 -11.25 3.25 -3 0.90 -10.20 3.05 -16 4.75 -15.40 4.55 -22.85 6.80 -28.80 8.75 -2.90 0.95 -5.90 1.75 -6.75 1.70 -0.80 0 -3.60 -0.65 -6.20 -1.45z"/>
  <path d="M199.50 87.50 c0 -1.05 0.50 -1.20 2.40 -0.70 1.80 0.50 1.35 1.70 -0.65 1.70 -1.40 0 -1.75 -0.20 -1.75 -1z"/>
  <path d="M193.50 87 c0 -1.05 0.50 -1.20 2.40 -0.70 1.80 0.50 1.35 1.70 -0.65 1.70 -1.40 0 -1.75 -0.20 -1.75 -1z"/>
 </g>
 <g fill="#1477f9">
  <path d="M17.65 171.55 c-0.90 -0.55 -1.95 -1.55 -2.40 -2.25 -0.80 -1.25 -0.80 -1.30 2.15 -4.15 3.10 -3.05 5.55 -6.60 6.80 -9.90 2.35 -6.35 3.20 -17.50 1.50 -20.10 -0.80 -1.25 -0.80 -1.35 0.10 -2 3.25 -2.40 8.05 -0.85 10.15 3.30 1.05 2.05 2.05 6.70 2.05 9.65 0 2.60 -1.35 8.90 -2.55 12.20 -1.60 4.25 -5.50 9.80 -8.35 11.90 -3.30 2.40 -6.95 2.90 -9.45 1.35z"/>
 </g>
 <g fill="#56797f">
  <path d="M117.50 157.75 c-5.95 -1.40 -14.85 -4 -31.75 -9.20 -22.65 -7 -25.95 -8.05 -26.35 -8.45 -0.85 -0.85 -1.40 -4.30 -1.40 -9.20 l0 -4.90 1.40 0 c0.75 0 2.35 0.60 3.60 1.30 4.25 2.45 14.25 6.85 20 8.80 17.80 6.05 39.20 8.65 57.05 6.90 13.10 -1.25 22.95 -3.40 33.70 -7.30 3.60 -1.25 7.60 -2.45 8.95 -2.55 l2.45 -0.25 -0.35 6.65 c-0.20 3.70 -0.45 7.15 -0.60 7.75 -0.50 1.95 -19.65 7.60 -31.95 9.45 -11.80 1.75 -29.50 2.25 -34.75 1z"/>
  <path d="M187.50 145.30 c0 -0.65 0.35 -1.35 0.80 -1.50 1.10 -0.45 3.70 -0.35 3.70 0.10 0 0.45 -1.60 1.45 -3.30 2.10 -1.05 0.40 -1.20 0.35 -1.20 -0.70z"/>
  <path d="M195 140.70 c0 -2.25 1.10 -4.70 2.10 -4.70 0.50 0 0.90 0.35 0.90 0.75 0 1.20 -1.25 3.95 -2.15 4.70 -0.75 0.60 -0.85 0.50 -0.85 -0.75z"/>
  <path d="M112.75 137.75 c-18.50 -1.75 -38.05 -7.90 -51.10 -16.05 l-3.65 -2.25 0 -5.25 c0 -3.90 0.15 -5.20 0.65 -5.20 0.75 0 11.35 3 17.60 4.95 4.90 1.60 10 3.10 24.50 7.35 5.25 1.50 11.20 3.30 13.25 3.90 10.25 3.15 12.70 3.80 13.95 3.80 1.55 0 3.70 -0.60 14.55 -3.90 4.55 -1.35 11.65 -3.45 15.75 -4.60 4.15 -1.15 10.75 -3.15 14.75 -4.40 4 -1.25 8.20 -2.35 9.40 -2.50 l2.15 -0.20 -0.15 6.90 -0.15 6.90 -5.50 2.20 c-19.35 7.60 -42.90 10.55 -66 8.35z"/>
  <path d="M124.75 119.70 c-0.55 -0.15 -1.55 -0.45 -2.25 -0.70 -3.10 -1.05 -30.85 -9.45 -46.85 -14.10 -16.60 -4.85 -17.65 -5.20 -17.65 -6.30 0 -0.90 0.20 -1.10 0.90 -0.90 2.30 0.70 26.05 7.75 35.70 10.55 l10.90 3.15 4.85 -1.60 c2.70 -0.90 8.40 -2.70 12.65 -3.95 4.25 -1.25 11.20 -3.35 15.40 -4.60 4.15 -1.25 10.90 -3.25 15 -4.45 4.05 -1.25 9.95 -2.95 13.10 -3.80 5.80 -1.60 19.60 -5.80 21 -6.35 0.50 -0.20 0.15 -0.45 -1 -0.70 -1.30 -0.25 -1.05 -0.30 1 -0.15 7.95 0.45 37.85 2.85 38.50 3.10 0.50 0.15 0.20 0.35 -0.75 0.60 -1.15 0.30 -23.50 6.80 -26.60 7.80 -0.35 0.10 -0.65 0.70 -0.65 1.35 0 1.15 -0.80 1.45 -16.35 6.05 -9.05 2.70 -19.20 5.75 -22.65 6.80 -21.85 6.75 -31.15 8.95 -34.25 8.20z"/>
  <path d="M240.75 83.25 c-1.10 -1.35 -1.70 -1.45 -19.65 -2.80 -7.80 -0.60 -8.10 -0.65 -6.50 -1.35 1.60 -0.70 9.45 -3.10 18.90 -5.80 2.60 -0.75 5.15 -1.55 5.60 -1.85 1.40 -0.75 2.85 -0.55 8.95 1.20 7.70 2.25 9.35 3.90 6.90 7 -0.75 0.95 -2.30 1.70 -5.85 2.80 -7.15 2.20 -7.20 2.20 -8.35 0.80z"/>
 </g>
 <g fill="#47666b">
  <path d="M182.20 147.10 c0.35 -1.05 0.80 -4.30 1 -7.30 0.35 -5.10 0.30 -5.40 -0.55 -5.15 -0.50 0.15 -3.80 1.35 -7.40 2.60 -3.55 1.25 -8.50 2.85 -11 3.50 -8.55 2.20 -23.75 4.25 -31.80 4.25 -3.50 0 -3.95 -0.10 -3.95 -0.90 0 -0.85 0.65 -0.95 7.15 -1.25 14.95 -0.60 31.05 -4.10 43.60 -9.45 10.30 -4.35 12.20 -5.25 14.65 -6.75 4.10 -2.60 4.10 -2.60 4.10 4.35 0 6.45 -0.55 8.65 -2.65 10.90 -1.10 1.20 -9.95 5.90 -12.45 6.60 l-1.30 0.40 0.60 -1.80z"/>
  <path d="M117.90 144.65 c-0.50 -0.10 -0.90 -0.55 -0.90 -0.95 0 -0.55 0.80 -0.70 3.50 -0.70 3.15 0 3.50 0.10 3.50 1 0 0.90 -0.30 1 -2.60 0.95 -1.45 -0.05 -3.05 -0.15 -3.50 -0.30z"/>
  <path d="M110.75 144.15 c-18.80 -2.45 -30.40 -6 -48.85 -15 -3.35 -1.65 -3.85 -2.05 -3.85 -3.25 -0.05 -1.80 0.95 -1.80 3.15 -0.15 4.45 3.40 21.25 10.35 31.30 12.95 6.70 1.75 18.80 3.80 22.35 3.80 1.30 0 1.65 0.20 1.65 1 0 0.85 -0.30 1 -2.10 0.95 -1.20 -0.05 -2.80 -0.20 -3.65 -0.30z"/>
  <path d="M111.75 137.95 c-16.90 -1.65 -34.90 -7.25 -48.85 -15.15 -4.50 -2.60 -5 -3.05 -4.80 -4.50 l0.15 -1.25 3.50 2.30 c12.95 8.50 35.65 15.70 53 16.90 5.95 0.40 7.25 0.70 7.25 1.55 0 0.80 -3.30 0.85 -10.25 0.15z"/>
  <path d="M134 137.75 c0 -0.85 1.10 -1.05 9.25 -1.75 10.70 -0.90 23.30 -3.90 34 -8.10 l5.50 -2.20 0.15 -5.40 c0.10 -5.05 0.05 -5.40 -0.75 -5.05 -1.85 0.70 -15.20 4.75 -22.40 6.75 -4.10 1.15 -11.20 3.25 -15.75 4.60 -11.90 3.65 -12.95 3.90 -16.05 3.90 -2.65 0 -4.50 -0.45 -15.45 -3.80 -2.05 -0.60 -8 -2.40 -13.25 -3.90 -11.75 -3.45 -18.20 -5.35 -26.25 -7.85 -3.45 -1.05 -8.15 -2.45 -10.50 -3.10 l-4.25 -1.20 -0.15 -6.40 -0.15 -6.35 1.40 0.30 c5.10 1.30 61.55 18.15 64.85 19.40 0.75 0.30 2.35 0.55 3.50 0.55 1.95 0 14.15 -3.35 31.55 -8.65 10.70 -3.25 36.20 -10.80 37.65 -11.15 l1.10 -0.25 -0.10 11 -0.15 10.95 -3.25 1.80 c-9.30 5.05 -11.55 6.20 -15 7.55 -12.25 4.75 -22.80 7.30 -35.95 8.60 -7.30 0.70 -9.55 0.65 -9.55 -0.25z"/>
 </g>
 <g fill="#3f5957">
  <path d="M117.50 144.45 c-13.45 -1 -25.65 -3.50 -37 -7.50 -6.55 -2.35 -18.35 -7.85 -20.85 -9.75 -1.60 -1.25 -1.65 -1.30 -1.65 -5.25 0 -4.30 0.35 -4.75 2.55 -3.05 6.10 4.60 21.75 11.25 33.55 14.15 10.75 2.65 17.30 3.50 29.45 3.80 21.45 0.55 36.35 -1.90 54.45 -8.95 3.40 -1.35 6.50 -2.90 14.55 -7.30 1.55 -0.85 3.40 -1.80 4.10 -2.05 l1.35 -0.55 0 4.25 0 4.25 -2.60 1.65 c-2.45 1.50 -4.35 2.40 -14.65 6.75 -12.10 5.15 -26.55 8.35 -43 9.55 -7.85 0.55 -13.25 0.55 -20.25 0z"/>
 </g>
</svg>